<?xml version="1.0" encoding="UTF-8" standalone="no"?>
<!-- Created with Inkscape (http://www.inkscape.org/) -->

<svg
   xmlns:dc="http://purl.org/dc/elements/1.1/"
   xmlns:cc="http://creativecommons.org/ns#"
   xmlns:rdf="http://www.w3.org/1999/02/22-rdf-syntax-ns#"
   xmlns:svg="http://www.w3.org/2000/svg"
   xmlns="http://www.w3.org/2000/svg"
   xmlns:xlink="http://www.w3.org/1999/xlink"
   xmlns:sodipodi="http://sodipodi.sourceforge.net/DTD/sodipodi-0.dtd"
   xmlns:inkscape="http://www.inkscape.org/namespaces/inkscape"
   version="1.1"
   id="svg1063"
   width="16"
   height="16"
   viewBox="0 0 16 16"
   sodipodi:docname="icon.svg"
   inkscape:version="0.92.2 5c3e80d, 2017-08-06">
  <metadata
     id="metadata1069">
    <rdf:RDF>
      <cc:Work
         rdf:about="">
        <dc:format>image/svg+xml</dc:format>
        <dc:type
           rdf:resource="http://purl.org/dc/dcmitype/StillImage" />
        <dc:title></dc:title>
      </cc:Work>
    </rdf:RDF>
  </metadata>
  <defs
     id="defs1067">
    <linearGradient
       gradientTransform="matrix(0.49999344,0,0,0.49999344,1.0497876e-4,-510.17425)"
       inkscape:collect="always"
       xlink:href="#linearGradient4138"
       id="linearGradient4144"
       x1="0"
       y1="1052.3622"
       x2="32"
       y2="1020.3622"
       gradientUnits="userSpaceOnUse" />
    <linearGradient
       inkscape:collect="always"
       id="linearGradient4138">
      <stop
         style="stop-color:#0064ff;stop-opacity:1"
         offset="0"
         id="stop4140" />
      <stop
         style="stop-color:#00c8ff;stop-opacity:1"
         offset="1"
         id="stop4142" />
    </linearGradient>
  </defs>
  <sodipodi:namedview
     pagecolor="#000000"
     bordercolor="#666666"
     borderopacity="1"
     objecttolerance="10"
     gridtolerance="10"
     guidetolerance="10"
     inkscape:pageopacity="0"
     inkscape:pageshadow="2"
     inkscape:window-width="1680"
     inkscape:window-height="1016"
     id="namedview1065"
     showgrid="true"
     inkscape:zoom="39.111846"
     inkscape:cx="9.5880785"
     inkscape:cy="8.4110846"
     inkscape:window-x="0"
     inkscape:window-y="0"
     inkscape:window-maximized="1"
     inkscape:current-layer="svg1063">
    <inkscape:grid
       type="xygrid"
       id="grid1616"
       empspacing="4" />
    <inkscape:grid
       type="xygrid"
       id="grid1618"
       empspacing="1"
       originy="0.5"
       originx="0.5"
       dotted="true" />
  </sodipodi:namedview>
  <path
     style="opacity:1;fill:url(#linearGradient4144);fill-opacity:1;stroke:none;stroke-width:1;stroke-linecap:butt;stroke-linejoin:round;stroke-miterlimit:4;stroke-dasharray:none;stroke-opacity:1"
     d="M 8 0 A 7.9998951 7.9997902 0 0 0 0 8 A 7.9998951 7.9997902 0 0 0 8 16 A 7.9998951 7.9997902 0 0 0 9.5058594 15.853516 A 4.5 4.5 0 0 1 8 12.5 A 4.5 4.5 0 0 1 12.5 8 A 4.5 4.5 0 0 1 15.851562 9.5039062 A 7.9998951 7.9997902 0 0 0 16 8 A 7.9998951 7.9997902 0 0 0 8 0 z "
     id="rect4136" />
  <path
     style="font-style:normal;font-weight:normal;font-size:27.57024384px;line-height:125%;font-family:sans-serif;letter-spacing:0px;word-spacing:0px;fill:#ffffff;fill-opacity:1;stroke:none;stroke-width:1px;stroke-linecap:butt;stroke-linejoin:miter;stroke-opacity:1"
     d="M 8.2949219 1.9902344 C 7.7357738 1.8815859 8.2276257 2.2986661 8.3710938 2.5703125 C 9.5507688 4.4254205 10.046595 6.6682737 9.8730469 8.8535156 A 4.5 4.5 0 0 1 11.134766 8.21875 C 11.135422 8.1641204 11.140789 8.1092385 11.140625 8.0546875 C 11.145525 5.8914159 10.524467 3.6646125 9.1132812 1.9902344 L 8.2949219 1.9902344 z M 5.7714844 4.2382812 C 5.2589267 4.1992102 4.7817945 4.6399761 4.859375 5.1875 C 4.859405 5.2886991 4.86821 5.3894325 4.890625 5.4882812 C 4.990158 6.1812721 6.0105123 6.3432335 6.3945312 5.8066406 C 6.7129983 5.3296968 6.628043 4.4469541 5.9902344 4.2851562 C 5.9170086 4.2589253 5.8447069 4.2438628 5.7714844 4.2382812 z M 5.7675781 10.148438 C 5.2623216 10.11109 4.7843242 10.541463 4.859375 11.082031 C 4.85941 11.184633 4.86816 11.288423 4.890625 11.388672 C 4.981358 12.020114 5.8329519 12.216729 6.28125 11.833984 C 6.7492887 11.39369 6.6742534 10.37361 5.984375 10.195312 C 5.9125594 10.169838 5.8397576 10.153773 5.7675781 10.148438 z M 8.1738281 13.732422 C 8.1097167 13.825337 8.0500918 13.921038 7.9824219 14.011719 L 8.2675781 14.011719 A 4.5 4.5 0 0 1 8.1738281 13.732422 z "
     id="text4148" />
  <circle
     style="fill:#0096ff;fill-opacity:1;stroke:none;stroke-width:1;stroke-linecap:round;stroke-linejoin:round;stroke-miterlimit:4;stroke-dasharray:none;stroke-opacity:1"
     id="path2330"
     cx="12.5"
     cy="12.5"
     r="3.5" />
  <path
     style="color:#000000;font-style:normal;font-variant:normal;font-weight:normal;font-stretch:normal;font-size:medium;line-height:normal;font-family:sans-serif;font-variant-ligatures:normal;font-variant-position:normal;font-variant-caps:normal;font-variant-numeric:normal;font-variant-alternates:normal;font-feature-settings:normal;text-indent:0;text-align:start;text-decoration:none;text-decoration-line:none;text-decoration-style:solid;text-decoration-color:#000000;letter-spacing:normal;word-spacing:normal;text-transform:none;writing-mode:lr-tb;direction:ltr;text-orientation:mixed;dominant-baseline:auto;baseline-shift:baseline;text-anchor:start;white-space:normal;shape-padding:0;clip-rule:nonzero;display:inline;overflow:visible;visibility:visible;opacity:1;isolation:auto;mix-blend-mode:normal;color-interpolation:sRGB;color-interpolation-filters:linearRGB;solid-color:#000000;solid-opacity:1;vector-effect:none;fill:#ffffff;fill-opacity:1;fill-rule:nonzero;stroke:none;stroke-width:1px;stroke-linecap:round;stroke-linejoin:round;stroke-miterlimit:4;stroke-dasharray:none;stroke-dashoffset:0;stroke-opacity:1;color-rendering:auto;image-rendering:auto;shape-rendering:auto;text-rendering:auto;enable-background:accumulate"
     d="m 12.5,14 a 0.50005,0.50005 0 1 0 0,1 0.50005,0.50005 0 1 0 0,-1 z"
     id="path2334"
     inkscape:connector-curvature="0" />
  <path
     style="color:#000000;font-style:normal;font-variant:normal;font-weight:normal;font-stretch:normal;font-size:medium;line-height:normal;font-family:sans-serif;font-variant-ligatures:normal;font-variant-position:normal;font-variant-caps:normal;font-variant-numeric:normal;font-variant-alternates:normal;font-feature-settings:normal;text-indent:0;text-align:start;text-decoration:none;text-decoration-line:none;text-decoration-style:solid;text-decoration-color:#000000;letter-spacing:normal;word-spacing:normal;text-transform:none;writing-mode:lr-tb;direction:ltr;text-orientation:mixed;dominant-baseline:auto;baseline-shift:baseline;text-anchor:start;white-space:normal;shape-padding:0;clip-rule:nonzero;display:inline;overflow:visible;visibility:visible;opacity:1;isolation:auto;mix-blend-mode:normal;color-interpolation:sRGB;color-interpolation-filters:linearRGB;solid-color:#000000;solid-opacity:1;vector-effect:none;fill:#ffffff;fill-opacity:1;fill-rule:nonzero;stroke:none;stroke-width:1px;stroke-linecap:round;stroke-linejoin:round;stroke-miterlimit:4;stroke-dasharray:none;stroke-dashoffset:0;stroke-opacity:1;color-rendering:auto;image-rendering:auto;shape-rendering:auto;text-rendering:auto;enable-background:accumulate"
     d="M 12.492188,9.9921875 A 0.50005,0.50005 0 0 0 12,10.5 v 2 a 0.50005,0.50005 0 1 0 1,0 v -2 A 0.50005,0.50005 0 0 0 12.492188,9.9921875 Z"
     id="path2336"
     inkscape:connector-curvature="0" />
</svg>
